<?xml version="1.0" encoding="UTF-8"?> <svg xmlns="http://www.w3.org/2000/svg" width="5.3215in" height="5.3217in" version="1.1" viewBox="0 0 5.3215 5.3217"><title>credzu favicon</title><g transform="translate(-.80746 -.64388)"><circle cx="3.4702" cy="3.3065" r="2.6667" fill="#00f" stroke-width=".073203" style="paint-order:markers stroke fill"></circle><path transform="scale(.010417)" d="m310.85 572.22c-78.756-7.5048-148.04-48.905-191.2-114.25-34.428-52.122-48.481-115.33-39.468-177.5 6.5799-45.386 24.873-87.068 54.54-124.28 7.5507-9.4696 28.09-29.944 37.916-37.796 9.5074-7.5975 27.313-19.54 37.37-25.066 83.332-45.782 185.77-41.408 264.77 11.306 63.231 42.193 103.45 108.29 112.63 185.12 1.4572 12.193 1.2413 46.208-0.36944 58.214-4.1841 31.188-11.816 56.616-24.87 82.857-13.115 26.366-27.317 46.067-48.427 67.176-21.107 21.107-40.797 35.302-67.176 48.429-26.201 13.039-52.117 20.85-82.29 24.805-10.333 1.3542-43.18 1.9574-53.425 0.9811z" fill="#2f55d4" stroke-width=".71429" style="paint-order:markers stroke fill"></path></g></svg> 