<?xml version="1.0" encoding="UTF-8"?> <svg xmlns="http://www.w3.org/2000/svg" width="1.0556in" height=".22907in" version="1.1" viewBox="0 0 1.0556 .22907"><title>credzu logo dark</title><g transform="translate(-1.9517 -1.7972)" fill="#fff"><path d="m2.5217 1.7972v0.043701c0 0.00798 9.344e-4 0.017049 0.00281 0.027222h-0.00122c-0.00903-0.013347-0.022135-0.02002-0.039307-0.02002-0.016357 0-0.029216 0.00627-0.038574 0.018799-0.00928 0.012451-0.013916 0.029867-0.013916 0.052246 0 0.022054 0.00456 0.039306 0.013672 0.051758 0.0092 0.012451 0.02181 0.018677 0.037842 0.018677 0.017334 0 0.030233-0.00671 0.038696-0.020142h0.00159l0.0072 0.0177h0.028564v-0.18994zm-0.48621 0.00891c-0.017009 0-0.03186 0.00374-0.044556 0.01123-0.012614 0.00741-0.022298 0.018107-0.029053 0.032104-0.00675 0.013916-0.010132 0.030151-0.010132 0.048706 0 0.029459 0.00688 0.052083 0.02063 0.067871 0.013753 0.015707 0.03361 0.02356 0.05957 0.02356 0.018066 0 0.034424-0.00305 0.049072-0.00916v-0.031738c-0.017822 0.00627-0.032999 0.0094-0.045532 0.0094-0.029867 0-0.0448-0.019898-0.0448-0.059692 0-0.019125 0.00391-0.034017 0.011719-0.044678 0.00781-0.010742 0.01884-0.016113 0.033081-0.016113 0.00651 0 0.013143 0.00118 0.019898 0.00354 0.00675 0.00236 0.013468 0.00513 0.020142 0.0083l0.012207-0.030762c-0.017497-0.00838-0.034912-0.012573-0.052246-0.012573zm0.17757 0.041992c-0.00846 0-0.016317 0.00236-0.023559 0.00708-0.00716 0.00464-0.012857 0.010783-0.01709 0.018433h-0.00183l-0.00549-0.022949h-0.028198v0.13647h0.037232v-0.069458c0-0.010983 0.00329-0.019528 0.00989-0.025635 0.00667-0.00611 0.015951-0.00916 0.027832-0.00916 0.00431 0 0.00797 4.073e-4 0.010986 0.00122l0.00281-0.034912c-0.00334-7.334e-4 -0.00753-0.0011-0.012573-0.0011zm0.11446 0c-0.020182 0-0.036011 0.00627-0.047485 0.018799-0.011393 0.012451-0.01709 0.03011-0.01709 0.052979 0 0.022217 0.00618 0.039388 0.018555 0.051514 0.01237 0.012125 0.029541 0.018189 0.051514 0.018189 0.010661 0 0.019694-8.146e-4 0.0271-0.00244 0.0074-0.00155 0.014361-0.00395 0.020874-0.0072v-0.028809c-0.00798 0.00375-0.015625 0.00647-0.022949 0.00818-0.00732 0.00171-0.015096 0.00256-0.023315 0.00256-0.010579 0-0.018798-0.00297-0.024658-0.00891s-0.00899-0.014201-0.0094-0.02478h0.088013v-0.018067c0-0.019369-0.00537-0.034546-0.016113-0.045532-0.010742-0.010986-0.025757-0.01648-0.045044-0.01648zm0.28227 0.00256v0.028447h0.059448l-0.063232 0.08606v0.021973h0.10779v-0.028443h-0.063721l0.061523-0.083862v-0.02417zm0.15108 0v0.088989c0 0.016113 0.00407 0.028483 0.012207 0.037109 0.00814 0.00854 0.020223 0.012817 0.036255 0.012817 0.00936 0 0.0177-0.00171 0.025024-0.00513 0.00733-0.0035 0.012981-0.00842 0.016968-0.014771h0.00195l5e-3 0.017456h0.028564v-0.13647h-0.037231v0.064209c0 0.016113-0.00232 0.027669-0.00696 0.034668-0.00464 0.00692-0.012166 0.010376-0.022583 0.010376-0.00765 0-0.013224-0.00244-0.016724-0.00732-0.0035-0.00496-0.00525-0.01237-0.00525-0.022217v-0.079712zm-0.43311 0.023926c0.00789 0 0.014159 0.00252 0.018799 0.00757 0.00464 0.00496 0.00704 0.012044 0.0072 0.02124h-0.052246c6.531e-4 -0.00919 0.00322-0.016274 0.00769-0.02124 0.00448-0.00505 0.010661-0.00757 0.018555-0.00757zm0.16768 0.00378c0.010175 0 0.017499 0.00317 0.021973 0.00952 0.00456 0.00635 0.00684 0.016845 0.00684 0.031494v0.00403c-4.063e-4 0.013266-0.00285 0.022665-0.00732 0.028198-0.00439 0.00553-0.011353 0.0083-0.020874 0.0083h-2.08e-5c-0.00862 0-0.015258-0.00334-0.019898-0.01001-0.00464-0.00675-0.00696-0.016845-0.00696-0.030273s0.0023-0.023641 0.00686-0.03064c0.00464-0.00708 0.011109-0.01062 0.019409-0.01062z" stroke-width=".010417"></path><path d="m3.0073 1.9862a0.04002 0.04002 0 0 1-0.04002 0.04002 0.04002 0.04002 0 0 1-0.04002-0.04002 0.04002 0.04002 0 0 1 0.04002-0.04002 0.04002 0.04002 0 0 1 0.04002 0.04002z" stroke-width=".0074704" style="paint-order:markers stroke fill"></path></g></svg> 